{"title":"Ek Second Jo Zindagi Badal De (2010) 1CD PDVD Rip Xvid MP3 [Tikr","uid":5623077,"size":731193030,"categoryP":"video","categoryS":"movies","magnet":"?xt=urn:btih:bf0b9575272eb87c97fbbfc173cad28996517aea&amp;dn=Ek+Second+Jo+Zindagi+Badal+De+%282010%29+1CD+PDVD+Rip+Xvid+MP3+%5BTikr&amp;tr=udp%3A%2F%2Ftracker.openbittorrent.com%3A80&amp;tr=udp%3A%2F%2Fopen.demonii.com%3A1337&amp;tr=udp%3A%2F%2Ftracker.coppersurfer.tk%3A6969&amp;tr=udp%3A%2F%2Fexodus.desync.com%3A6969","seeders":0,"leechers":0,"uploader":"luvwithromio","files":1,"time":1276355429,"description":"Format                           : AVI\nFormat/Info                      : Audio Video Interleave\nFile size                        : 697 MiB\nDuration                         : 2h 2mn\nOverall bit rate                 : 795 Kbps\n\nVideo\nID                               : 0\nFormat                           : MPEG-4 Visual\nFormat profile                   : Advanced Simple@L5\nFormat settings, BVOP            : Yes\nFormat settings, QPel            : No\nFormat settings, GMC             : No warppoints\nFormat settings, Matrix          : Default (H.263)\nCodec ID                         : XVID\nCodec ID/Hint                    : XviD\nDuration                         : 2h 2mn\nBit rate                         : 686 Kbps\nWidth                            : 608 pixels\nHeight                           : 256 pixels\nDisplay aspect ratio             : 2.35:1\nFrame rate                       : 23.976 fps\nResolution                       : 8 bits\nColorimetry                      : 4:2:0\nScan type                        : Progressive\nBits/(Pixel*Frame)               : 0.184\nStream size                      : 602 MiB (86%)\nWriting library                  : XviD 1.1.2 (UTC 2006-11-01)\n\nAudio\nID                               : 1\nFormat                           : MPEG Audio\nFormat version                   : Version 1\nFormat profile                   : Layer 3\nCodec ID                         : 55\nCodec ID/Hint                    : MP3\nDuration                         : 2h 2mn\nBit rate mode                    : Constant\nBit rate                         : 96.0 Kbps\nChannel(s)                       : 2 channels\nSampling rate                    : 48.0 KHz\nStream size                      : 84.2 MiB (12%)\nAlignment                        : Split accross interleaves\nInterleave, duration             : 24 ms (0.58 video frame)","torrent":{"xt":"urn:btih:bf0b9575272eb87c97fbbfc173cad28996517aea","amp;dn":"Ek+Second+Jo+Zindagi+Badal+De+%282010%29+1CD+PDVD+Rip+Xvid+MP3+%5BTikr","amp;tr":["udp%3A%2F%2Ftracker.openbittorrent.com%3A80","udp%3A%2F%2Fopen.demonii.com%3A1337","udp%3A%2F%2Ftracker.coppersurfer.tk%3A6969","udp%3A%2F%2Fexodus.desync.com%3A6969"],"infoHash":"bf0b9575272eb87c97fbbfc173cad28996517aea","infoHashBuffer":{"type":"Buffer","data":[191,11,149,117,39,46,184,124,151,251,191,193,115,202,210,137,150,81,122,234]},"announce":[],"urlList":[]}}